<svg xmlns="http://www.w3.org/2000/svg" width="16" height="18" viewBox="0 0 16 18" fill="none">
  <path d="M13.3333 3.52684H13.0142C11.9606 3.52684 11.4367 2.24973 12.1867 1.50979C12.2695 1.42766 12.3353 1.33016 12.3801 1.22286C12.425 1.11556 12.4481 1.00055 12.4481 0.884412C12.4481 0.768269 12.425 0.653264 12.3801 0.545962C12.3353 0.43866 12.2695 0.341164 12.1867 0.259038C12.1038 0.176913 12.0054 0.111768 11.8971 0.0673218C11.7888 0.0228759 11.6728 0 11.5556 0C11.3188 0 11.0918 0.0931788 10.9244 0.259038L9.4619 1.69067C8.71828 2.41857 7.48901 2.25613 6.96 1.36005C6.90163 1.25942 6.82384 1.17116 6.73105 1.10032C6.63827 1.02948 6.53231 0.977444 6.41923 0.947182C6.30614 0.916919 6.18816 0.909023 6.072 0.923945C5.95583 0.938867 5.84378 0.976315 5.74222 1.03415C5.64067 1.09198 5.5516 1.16907 5.48011 1.26102C5.40862 1.35296 5.35611 1.45795 5.32557 1.57001C5.29503 1.68206 5.28706 1.79898 5.30212 1.91408C5.31718 2.02919 5.35497 2.14022 5.41333 2.24086C5.76485 2.7997 5.3632 3.52684 4.703 3.52684H2.66667C1.95942 3.52684 1.28115 3.80523 0.781049 4.30078C0.280952 4.79634 0 5.46845 0 6.16926V13.2157C0 13.9165 0.280952 14.5887 0.781049 15.0842C1.071 15.3715 1.42084 15.5858 1.8015 15.7152C2.26207 15.8718 2.66667 16.2525 2.66667 16.739C2.66667 16.9726 2.76032 17.1966 2.92702 17.3618C3.09372 17.527 3.31981 17.6198 3.55556 17.6198C3.7913 17.6198 4.0174 17.527 4.18409 17.3618C4.35079 17.1966 4.44444 16.9726 4.44444 16.739C4.44444 16.2525 4.8388 15.8581 5.32525 15.8581H10.6747C11.1612 15.8581 11.5556 16.2525 11.5556 16.739C11.5556 16.9726 11.6492 17.1966 11.8159 17.3618C11.9826 17.527 12.2087 17.6198 12.4444 17.6198C12.6802 17.6198 12.9063 17.527 13.073 17.3618C13.2397 17.1966 13.3333 16.9726 13.3333 16.739C13.3333 16.2525 13.7379 15.8718 14.1985 15.7152C14.5792 15.5858 14.929 15.3715 15.219 15.0842C15.719 14.5887 16 13.9165 16 13.2157V6.16926C16 5.46845 15.719 4.79634 15.219 4.30078C14.7189 3.80523 14.0406 3.52684 13.3333 3.52684ZM14.2222 13.2157C14.2222 13.4493 14.1286 13.6734 13.9619 13.8386C13.7952 14.0037 13.5691 14.0965 13.3333 14.0965H2.66667C2.43092 14.0965 2.20483 14.0037 2.03813 13.8386C1.87143 13.6734 1.77778 13.4493 1.77778 13.2157V6.16926C1.77778 5.93566 1.87143 5.71162 2.03813 5.54644C2.20483 5.38125 2.43092 5.28845 2.66667 5.28845H13.3333C13.5691 5.28845 13.7952 5.38125 13.9619 5.54644C14.1286 5.71162 14.2222 5.93566 14.2222 6.16926V13.2157Z" fill="#FF885E"/>
</svg>
