<svg xmlns="http://www.w3.org/2000/svg" width="29" height="31" viewBox="0 0 29 31" fill="none">
  <path d="M23.7241 6.07512H23.1794C21.3811 6.07512 20.4867 3.89524 21.7669 2.63222C21.9084 2.49204 22.0206 2.32563 22.0971 2.14247C22.1737 1.95932 22.2131 1.76302 22.2131 1.56478C22.2131 1.36653 22.1737 1.17023 22.0971 0.987077C22.0206 0.803924 21.9084 0.637507 21.7669 0.497327C21.6254 0.357148 21.4575 0.245952 21.2727 0.170087C21.0878 0.0942227 20.8897 0.0551758 20.6897 0.0551758C20.2856 0.0551758 19.8981 0.214222 19.6124 0.497327L17.116 2.94097C15.8467 4.18343 13.7485 3.90615 12.8455 2.37664C12.7459 2.20487 12.6131 2.05423 12.4547 1.93331C12.2963 1.81239 12.1155 1.72357 11.9225 1.67192C11.7295 1.62026 11.5281 1.60678 11.3298 1.63225C11.1315 1.65773 10.9402 1.72164 10.7669 1.82036C10.5935 1.91908 10.4415 2.05066 10.3195 2.2076C10.1975 2.36454 10.1078 2.54375 10.0557 2.73502C10.0036 2.92628 9.98998 3.12584 10.0157 3.32231C10.0414 3.51879 10.1059 3.70832 10.2055 3.88009C10.8055 4.83397 10.1199 6.07512 8.99304 6.07512H5.51724C4.31005 6.07512 3.1523 6.55032 2.29868 7.39617C1.44507 8.24202 0.965515 9.38925 0.965515 10.5855V22.6131C0.965515 23.8093 1.44507 24.9565 2.29868 25.8023C2.79359 26.2928 3.39074 26.6586 4.04048 26.8794C4.82664 27.1466 5.51724 27.7965 5.51724 28.6268C5.51724 29.0256 5.67709 29.408 5.96163 29.6899C6.24617 29.9719 6.63208 30.1303 7.03448 30.1303C7.43688 30.1303 7.82279 29.9719 8.10733 29.6899C8.39187 29.408 8.55172 29.0256 8.55172 28.6268C8.55172 27.7965 9.22484 27.1234 10.0552 27.1234H19.1862C20.0165 27.1234 20.6897 27.7965 20.6897 28.6268C20.6897 29.0256 20.8495 29.408 21.134 29.6899C21.4186 29.9719 21.8045 30.1303 22.2069 30.1303C22.6093 30.1303 22.9952 29.9719 23.2797 29.6899C23.5643 29.408 23.7241 29.0256 23.7241 28.6268C23.7241 27.7965 24.4147 27.1466 25.2009 26.8794C25.8506 26.6586 26.4478 26.2928 26.9427 25.8023C27.7963 24.9565 28.2759 23.8093 28.2759 22.6131V10.5855C28.2759 9.38925 27.7963 8.24202 26.9427 7.39617C26.0891 6.55032 24.9313 6.07512 23.7241 6.07512ZM25.2414 22.6131C25.2414 23.0118 25.0815 23.3942 24.797 23.6761C24.5125 23.9581 24.1265 24.1165 23.7241 24.1165H5.51724C5.11484 24.1165 4.72893 23.9581 4.44439 23.6761C4.15985 23.3942 4 23.0118 4 22.6131V10.5855C4 10.1867 4.15985 9.80432 4.44439 9.52237C4.72893 9.24042 5.11484 9.08202 5.51724 9.08202H23.7241C24.1265 9.08202 24.5125 9.24042 24.797 9.52237C25.0815 9.80432 25.2414 10.1867 25.2414 10.5855V22.6131Z" fill="#FF885E"/>
</svg>
