<svg xmlns="http://www.w3.org/2000/svg" width="40" height="37" viewBox="0 0 40 37" fill="none">
  <path d="M19.9548 25.3446C19.5973 25.3446 19.2478 25.4503 18.9505 25.6482C18.6533 25.8462 18.4216 26.1275 18.2848 26.4567C18.148 26.7859 18.1122 27.1481 18.1819 27.4976C18.2517 27.847 18.4238 28.168 18.6766 28.42C18.9294 28.6719 19.2515 28.8435 19.6021 28.913C19.9528 28.9825 20.3162 28.9468 20.6465 28.8105C20.9768 28.6741 21.2591 28.4432 21.4577 28.147C21.6563 27.8507 21.7623 27.5024 21.7623 27.1461C21.7623 26.6683 21.5719 26.2101 21.2329 25.8722C20.8939 25.5344 20.4342 25.3446 19.9548 25.3446ZM39.2416 27.9928L24.6906 2.77184C24.2203 1.93147 23.5334 1.23148 22.7008 0.744198C21.8683 0.256913 20.9203 0 19.9548 0C18.9893 0 18.0413 0.256913 17.2087 0.744198C16.3762 1.23148 15.6892 1.93147 15.2189 2.77184L0.758311 27.9928C0.271704 28.8107 0.0102325 29.7421 0.000294275 30.6929C-0.00964395 31.6438 0.232303 32.5804 0.701709 33.4082C1.17111 34.236 1.85136 34.9258 2.67377 35.4078C3.49618 35.8898 4.43164 36.1471 5.38571 36.1536H34.5238C35.4856 36.163 36.4325 35.9174 37.2676 35.4418C38.1026 34.9663 38.7958 34.278 39.2759 33.4474C39.7561 32.6169 40.0059 31.674 39.9999 30.7155C39.9939 29.757 39.7322 28.8173 39.2416 27.9928ZM36.1145 31.5958C35.9561 31.8767 35.7249 32.1102 35.4451 32.2718C35.1653 32.4334 34.8472 32.5172 34.5238 32.5146H5.38571C5.06235 32.5172 4.7442 32.4334 4.46442 32.2718C4.18464 32.1102 3.95348 31.8767 3.79504 31.5958C3.63639 31.3219 3.55287 31.0113 3.55287 30.695C3.55287 30.3788 3.63639 30.0682 3.79504 29.7943L18.2556 4.57334C18.4073 4.27825 18.6378 4.03061 18.9216 3.85768C19.2055 3.68475 19.5317 3.59325 19.8644 3.59325C20.1971 3.59325 20.5233 3.68475 20.8071 3.85768C21.091 4.03061 21.3214 4.27825 21.4731 4.57334L36.0241 29.7943C36.2035 30.0642 36.3065 30.3773 36.3224 30.7007C36.3383 31.0241 36.2665 31.3457 36.1145 31.6318V31.5958ZM19.9548 10.9326C19.4754 10.9326 19.0156 11.1224 18.6766 11.4603C18.3376 11.7981 18.1472 12.2563 18.1472 12.7341V19.9401C18.1472 20.4179 18.3376 20.8761 18.6766 21.214C19.0156 21.5518 19.4754 21.7416 19.9548 21.7416C20.4342 21.7416 20.8939 21.5518 21.2329 21.214C21.5719 20.8761 21.7623 20.4179 21.7623 19.9401V12.7341C21.7623 12.2563 21.5719 11.7981 21.2329 11.4603C20.8939 11.1224 20.4342 10.9326 19.9548 10.9326Z" fill="white"/>
</svg>
