<svg xmlns="http://www.w3.org/2000/svg" width="24" height="34" viewBox="0 0 24 34" fill="none">
  <path d="M19.6367 2.75088C18.257 1.60839 16.6414 0.79042 14.9078 0.356656C13.1741 -0.0771091 11.3661 -0.11573 9.61579 0.243611C7.28514 0.717608 5.14686 1.87798 3.47225 3.57749C1.79764 5.277 0.662181 7.43906 0.209931 9.78935C-0.120328 11.5516 -0.0603149 13.3654 0.385691 15.1016C0.831697 16.8378 1.65271 18.4535 2.79017 19.8335C3.84579 21.0329 4.45087 22.5666 4.50032 24.1684V28.6996C4.50032 29.9013 4.97447 31.0538 5.81846 31.9036C6.66245 32.7534 7.80715 33.2308 9.00073 33.2308H15.0013C16.1949 33.2308 17.3396 32.7534 18.1835 31.9036C19.0275 31.0538 19.5017 29.9013 19.5017 28.6996V24.4553C19.552 22.6869 20.1973 20.9881 21.3319 19.6372C23.3197 17.1613 24.2568 13.9955 23.9393 10.8279C23.6219 7.66033 22.0757 4.74685 19.6367 2.72067V2.75088ZM16.5014 28.6996C16.5014 29.1001 16.3434 29.4843 16.062 29.7676C15.7807 30.0508 15.3991 30.21 15.0013 30.21H9.00073C8.60287 30.21 8.2213 30.0508 7.93997 29.7676C7.65864 29.4843 7.50059 29.1001 7.50059 28.6996V27.1892H16.5014V28.6996ZM19.0066 17.7643C17.4983 19.5656 16.6182 21.8152 16.5014 24.1684H13.5011V19.6372C13.5011 19.2366 13.3431 18.8524 13.0618 18.5691C12.7804 18.2859 12.3989 18.1268 12.001 18.1268C11.6031 18.1268 11.2216 18.2859 10.9402 18.5691C10.6589 18.8524 10.5009 19.2366 10.5009 19.6372V24.1684H7.50059C7.46101 21.8546 6.61093 19.6292 5.10038 17.8851C4.10375 16.6828 3.43356 15.241 3.15517 13.7003C2.87677 12.1596 2.99966 10.5725 3.51186 9.09385C4.02406 7.61519 4.90809 6.2954 6.07775 5.26317C7.2474 4.23093 8.66277 3.52148 10.1858 3.204C11.4948 2.93264 12.8473 2.95817 14.1453 3.27872C15.4432 3.59926 16.6539 4.20679 17.6896 5.05719C18.7253 5.90759 19.5598 6.97951 20.1328 8.19514C20.7057 9.41078 21.0026 10.7396 21.0018 12.0852C21.0129 14.1542 20.3074 16.1624 19.0066 17.7643Z" fill="white"/>
</svg>
