<svg xmlns="http://www.w3.org/2000/svg" width="16" height="22" viewBox="0 0 16 22" fill="none">
  <path d="M13.0911 1.82145C12.1713 1.06497 11.0943 0.523366 9.9385 0.236155C8.78274 -0.0510567 7.57743 -0.0766289 6.41052 0.161304C4.85676 0.475154 3.43124 1.24348 2.31484 2.36878C1.19843 3.49409 0.441454 4.92567 0.139954 6.48188C-0.0802188 7.64871 -0.0402099 8.84974 0.257127 9.99933C0.554464 11.1489 1.1018 12.2187 1.86011 13.1325C2.56386 13.9266 2.96724 14.9422 3.00021 16.0027V19.003C3.00021 19.7987 3.31631 20.5619 3.87897 21.1245C4.44163 21.6872 5.20477 22.0033 6.00049 22.0033H10.0008C10.7966 22.0033 11.5597 21.6872 12.1224 21.1245C12.685 20.5619 13.0011 19.7987 13.0011 19.003V16.1928C13.0347 15.0218 13.4649 13.897 14.2212 13.0025C15.5465 11.3631 16.1712 9.26695 15.9596 7.16957C15.748 5.07218 14.7171 3.14306 13.0911 1.80145V1.82145ZM11.0009 19.003C11.0009 19.2683 10.8956 19.5226 10.708 19.7102C10.5205 19.8977 10.2661 20.0031 10.0008 20.0031H6.00049C5.73525 20.0031 5.48087 19.8977 5.29332 19.7102C5.10576 19.5226 5.0004 19.2683 5.0004 19.003V18.0029H11.0009V19.003ZM12.6711 11.7624C11.6655 12.9551 11.0788 14.4446 11.0009 16.0027H9.00076V13.0025C9.00076 12.7372 8.89539 12.4829 8.70784 12.2953C8.52029 12.1077 8.26591 12.0024 8.00067 12.0024C7.73543 12.0024 7.48105 12.1077 7.2935 12.2953C7.10594 12.4829 7.00058 12.7372 7.00058 13.0025V16.0027H5.0004C4.97401 14.4707 4.40729 12.9972 3.40025 11.8424C2.73583 11.0463 2.28904 10.0916 2.10344 9.07146C1.91785 8.05129 1.99977 7.00044 2.34124 6.02137C2.68271 5.04229 3.27206 4.16841 4.05183 3.48493C4.8316 2.80145 5.77518 2.3317 6.79056 2.12148C7.66319 1.94181 8.56488 1.95871 9.43017 2.17096C10.2955 2.3832 11.1026 2.78547 11.7931 3.34855C12.4835 3.91162 13.0399 4.62139 13.4218 5.4263C13.8038 6.23121 14.0017 7.11108 14.0012 8.00202C14.0086 9.372 13.5383 10.7017 12.6711 11.7624Z" fill="white"/>
</svg>
