<svg width="24" height="22" viewBox="0 0 24 22" fill="none" xmlns="http://www.w3.org/2000/svg">
<path id="Vector" d="M11.9729 15.2068C11.7584 15.2068 11.5487 15.2702 11.3703 15.3889C11.192 15.5077 11.053 15.6765 10.9709 15.874C10.8888 16.0715 10.8673 16.2889 10.9092 16.4985C10.951 16.7082 11.0543 16.9008 11.206 17.052C11.3576 17.2031 11.5509 17.3061 11.7613 17.3478C11.9717 17.3895 12.1897 17.3681 12.3879 17.2863C12.5861 17.2045 12.7555 17.0659 12.8746 16.8882C12.9938 16.7104 13.0574 16.5014 13.0574 16.2877C13.0574 16.001 12.9431 15.7261 12.7398 15.5233C12.5364 15.3206 12.2605 15.2068 11.9729 15.2068ZM23.545 16.7957L14.8144 1.6631C14.5322 1.15888 14.12 0.73889 13.6205 0.446519C13.121 0.154148 12.5522 0 11.9729 0C11.3936 0 10.8248 0.154148 10.3252 0.446519C9.8257 0.73889 9.41354 1.15888 9.13135 1.6631L0.454987 16.7957C0.163023 17.2864 0.0061395 17.8453 0.000176565 18.4158C-0.00578637 18.9863 0.139382 19.5482 0.421025 20.0449C0.702668 20.5416 1.11082 20.9555 1.60426 21.2447C2.09771 21.5339 2.65898 21.6883 3.23142 21.6922H20.7143C21.2913 21.6978 21.8595 21.5504 22.3605 21.2651C22.8616 20.9798 23.2775 20.5668 23.5656 20.0684C23.8536 19.5701 24.0036 19.0044 23.9999 18.4293C23.9963 17.8542 23.8393 17.2904 23.545 16.7957ZM21.6687 18.9575C21.5736 19.126 21.4349 19.2661 21.2671 19.3631C21.0992 19.46 20.9083 19.5103 20.7143 19.5087H3.23142C3.03741 19.5103 2.84652 19.46 2.67865 19.3631C2.51078 19.2661 2.37209 19.126 2.27702 18.9575C2.18183 18.7932 2.13172 18.6068 2.13172 18.417C2.13172 18.2273 2.18183 18.0409 2.27702 17.8766L10.9534 2.744C11.0444 2.56695 11.1827 2.41836 11.353 2.31461C11.5233 2.21085 11.719 2.15595 11.9186 2.15595C12.1182 2.15595 12.314 2.21085 12.4843 2.31461C12.6546 2.41836 12.7929 2.56695 12.8839 2.744L21.6145 17.8766C21.7221 18.0385 21.7839 18.2264 21.7934 18.4204C21.803 18.6144 21.7599 18.8074 21.6687 18.9791V18.9575ZM11.9729 6.55957C11.6852 6.55957 11.4094 6.67345 11.206 6.87616C11.0026 7.07887 10.8883 7.3538 10.8883 7.64047V11.9641C10.8883 12.2507 11.0026 12.5257 11.206 12.7284C11.4094 12.9311 11.6852 13.045 11.9729 13.045C12.2605 13.045 12.5364 12.9311 12.7398 12.7284C12.9431 12.5257 13.0574 12.2507 13.0574 11.9641V7.64047C13.0574 7.3538 12.9431 7.07887 12.7398 6.87616C12.5364 6.67345 12.2605 6.55957 11.9729 6.55957Z" fill="white" fill-opacity="0.3"/>
</svg>
